<mxfile host="app.diagrams.net" agent="Mozilla/5.0 (Windows NT 10.0; Win64; x64) AppleWebKit/537.36 (KHTML, like Gecko) Chrome/124.0.0.0 Safari/537.36 SLBrowser/9.0.5.8121 SLBChan/33 SLBVPV/64-bit" version="24.7.10">
  <diagram name="第 1 页" id="VIN2z_2Q6eXUdQAWVIkF">
    <mxGraphModel dx="1290" dy="541" grid="1" gridSize="10" guides="1" tooltips="1" connect="1" arrows="1" fold="1" page="1" pageScale="1" pageWidth="827" pageHeight="1169" math="0" shadow="0">
      <root>
        <mxCell id="0" />
        <mxCell id="1" parent="0" />
        <mxCell id="0BwrC1VPoH0T5kkHzl9E-11" value="" style="group" vertex="1" connectable="0" parent="1">
          <mxGeometry x="60" y="150" width="70" height="60" as="geometry" />
        </mxCell>
        <mxCell id="0BwrC1VPoH0T5kkHzl9E-9" value="" style="shape=curlyBracket;whiteSpace=wrap;html=1;rounded=1;labelPosition=left;verticalLabelPosition=middle;align=right;verticalAlign=middle;" vertex="1" parent="0BwrC1VPoH0T5kkHzl9E-11">
          <mxGeometry x="50" y="5" width="20" height="50" as="geometry" />
        </mxCell>
        <mxCell id="0BwrC1VPoH0T5kkHzl9E-10" value="应用层&lt;br&gt;表示层&lt;br&gt;会话层" style="text;html=1;align=center;verticalAlign=middle;resizable=0;points=[];autosize=1;strokeColor=none;fillColor=none;" vertex="1" parent="0BwrC1VPoH0T5kkHzl9E-11">
          <mxGeometry width="60" height="60" as="geometry" />
        </mxCell>
        <mxCell id="0BwrC1VPoH0T5kkHzl9E-12" value="" style="group" vertex="1" connectable="0" parent="1">
          <mxGeometry x="40" y="330" width="90" height="60" as="geometry" />
        </mxCell>
        <mxCell id="0BwrC1VPoH0T5kkHzl9E-7" value="" style="shape=curlyBracket;whiteSpace=wrap;html=1;rounded=1;labelPosition=left;verticalLabelPosition=middle;align=right;verticalAlign=middle;" vertex="1" parent="0BwrC1VPoH0T5kkHzl9E-12">
          <mxGeometry x="70" width="20" height="60" as="geometry" />
        </mxCell>
        <mxCell id="0BwrC1VPoH0T5kkHzl9E-8" value="数据链路层&lt;br&gt;物理层" style="text;html=1;align=center;verticalAlign=middle;resizable=0;points=[];autosize=1;strokeColor=none;fillColor=none;" vertex="1" parent="0BwrC1VPoH0T5kkHzl9E-12">
          <mxGeometry y="10" width="80" height="40" as="geometry" />
        </mxCell>
        <mxCell id="0BwrC1VPoH0T5kkHzl9E-33" value="" style="group" vertex="1" connectable="0" parent="1">
          <mxGeometry x="140" y="150" width="120" height="270" as="geometry" />
        </mxCell>
        <mxCell id="0BwrC1VPoH0T5kkHzl9E-13" value="" style="group" vertex="1" connectable="0" parent="0BwrC1VPoH0T5kkHzl9E-33">
          <mxGeometry width="120" height="240" as="geometry" />
        </mxCell>
        <mxCell id="0BwrC1VPoH0T5kkHzl9E-2" value="&lt;font style=&quot;font-size: 18px;&quot;&gt;&lt;b&gt;&lt;font style=&quot;&quot;&gt;应用&lt;/font&gt;层&lt;/b&gt;&lt;/font&gt;" style="rounded=1;whiteSpace=wrap;html=1;" vertex="1" parent="0BwrC1VPoH0T5kkHzl9E-13">
          <mxGeometry width="120" height="60" as="geometry" />
        </mxCell>
        <mxCell id="0BwrC1VPoH0T5kkHzl9E-3" value="&lt;span style=&quot;font-size: 18px;&quot;&gt;&lt;b&gt;传输层&lt;/b&gt;&lt;/span&gt;" style="rounded=1;whiteSpace=wrap;html=1;" vertex="1" parent="0BwrC1VPoH0T5kkHzl9E-13">
          <mxGeometry y="60" width="120" height="60" as="geometry" />
        </mxCell>
        <mxCell id="0BwrC1VPoH0T5kkHzl9E-4" value="&lt;b style=&quot;font-size: 18px;&quot;&gt;网络层&lt;/b&gt;" style="rounded=1;whiteSpace=wrap;html=1;" vertex="1" parent="0BwrC1VPoH0T5kkHzl9E-13">
          <mxGeometry y="120" width="120" height="60" as="geometry" />
        </mxCell>
        <mxCell id="0BwrC1VPoH0T5kkHzl9E-5" value="&lt;span style=&quot;font-size: 18px;&quot;&gt;&lt;b&gt;网络接口层&lt;/b&gt;&lt;/span&gt;" style="rounded=1;whiteSpace=wrap;html=1;" vertex="1" parent="0BwrC1VPoH0T5kkHzl9E-13">
          <mxGeometry y="180" width="120" height="60" as="geometry" />
        </mxCell>
        <mxCell id="0BwrC1VPoH0T5kkHzl9E-32" value="&lt;b&gt;&lt;font style=&quot;font-size: 14px;&quot;&gt;主机&lt;/font&gt;&lt;/b&gt;" style="text;html=1;align=center;verticalAlign=middle;resizable=0;points=[];autosize=1;strokeColor=none;fillColor=none;" vertex="1" parent="0BwrC1VPoH0T5kkHzl9E-33">
          <mxGeometry x="30" y="240" width="50" height="30" as="geometry" />
        </mxCell>
        <mxCell id="0BwrC1VPoH0T5kkHzl9E-35" value="" style="group" vertex="1" connectable="0" parent="1">
          <mxGeometry x="510" y="270" width="140" height="150" as="geometry" />
        </mxCell>
        <mxCell id="0BwrC1VPoH0T5kkHzl9E-31" value="" style="group" vertex="1" connectable="0" parent="0BwrC1VPoH0T5kkHzl9E-35">
          <mxGeometry x="10" width="120" height="120" as="geometry" />
        </mxCell>
        <mxCell id="0BwrC1VPoH0T5kkHzl9E-19" value="&lt;span style=&quot;font-size: 18px;&quot;&gt;&lt;b&gt;网络接口层&lt;/b&gt;&lt;/span&gt;" style="rounded=1;whiteSpace=wrap;html=1;" vertex="1" parent="0BwrC1VPoH0T5kkHzl9E-31">
          <mxGeometry y="60" width="120" height="60" as="geometry" />
        </mxCell>
        <mxCell id="0BwrC1VPoH0T5kkHzl9E-30" value="&lt;b style=&quot;font-size: 18px;&quot;&gt;网络层&lt;/b&gt;" style="rounded=1;whiteSpace=wrap;html=1;" vertex="1" parent="0BwrC1VPoH0T5kkHzl9E-31">
          <mxGeometry width="120" height="60" as="geometry" />
        </mxCell>
        <mxCell id="0BwrC1VPoH0T5kkHzl9E-34" value="&lt;b&gt;路由器[三层网络模型]&lt;/b&gt;" style="text;html=1;align=center;verticalAlign=middle;resizable=0;points=[];autosize=1;strokeColor=none;fillColor=none;" vertex="1" parent="0BwrC1VPoH0T5kkHzl9E-35">
          <mxGeometry y="120" width="140" height="30" as="geometry" />
        </mxCell>
        <mxCell id="0BwrC1VPoH0T5kkHzl9E-37" value="" style="group" vertex="1" connectable="0" parent="1">
          <mxGeometry x="870" y="150" width="120" height="270" as="geometry" />
        </mxCell>
        <mxCell id="0BwrC1VPoH0T5kkHzl9E-14" value="" style="group" vertex="1" connectable="0" parent="0BwrC1VPoH0T5kkHzl9E-37">
          <mxGeometry width="120" height="240" as="geometry" />
        </mxCell>
        <mxCell id="0BwrC1VPoH0T5kkHzl9E-15" value="&lt;font style=&quot;font-size: 18px;&quot;&gt;&lt;b&gt;&lt;font style=&quot;&quot;&gt;应用&lt;/font&gt;层&lt;/b&gt;&lt;/font&gt;" style="rounded=1;whiteSpace=wrap;html=1;" vertex="1" parent="0BwrC1VPoH0T5kkHzl9E-14">
          <mxGeometry width="120" height="60" as="geometry" />
        </mxCell>
        <mxCell id="0BwrC1VPoH0T5kkHzl9E-16" value="&lt;span style=&quot;font-size: 18px;&quot;&gt;&lt;b&gt;传输层&lt;/b&gt;&lt;/span&gt;" style="rounded=1;whiteSpace=wrap;html=1;" vertex="1" parent="0BwrC1VPoH0T5kkHzl9E-14">
          <mxGeometry y="60" width="120" height="60" as="geometry" />
        </mxCell>
        <mxCell id="0BwrC1VPoH0T5kkHzl9E-17" value="&lt;span style=&quot;font-size: 18px;&quot;&gt;&lt;b&gt;网络层&lt;/b&gt;&lt;/span&gt;" style="rounded=1;whiteSpace=wrap;html=1;" vertex="1" parent="0BwrC1VPoH0T5kkHzl9E-14">
          <mxGeometry y="120" width="120" height="60" as="geometry" />
        </mxCell>
        <mxCell id="0BwrC1VPoH0T5kkHzl9E-18" value="&lt;span style=&quot;font-size: 18px;&quot;&gt;&lt;b&gt;网络接口层&lt;/b&gt;&lt;/span&gt;" style="rounded=1;whiteSpace=wrap;html=1;" vertex="1" parent="0BwrC1VPoH0T5kkHzl9E-14">
          <mxGeometry y="180" width="120" height="60" as="geometry" />
        </mxCell>
        <mxCell id="0BwrC1VPoH0T5kkHzl9E-36" value="&lt;font style=&quot;font-size: 14px;&quot;&gt;&lt;b&gt;主机&lt;/b&gt;&lt;/font&gt;" style="text;html=1;align=center;verticalAlign=middle;resizable=0;points=[];autosize=1;strokeColor=none;fillColor=none;" vertex="1" parent="0BwrC1VPoH0T5kkHzl9E-37">
          <mxGeometry x="35" y="240" width="50" height="30" as="geometry" />
        </mxCell>
        <mxCell id="0BwrC1VPoH0T5kkHzl9E-38" value="" style="endArrow=none;dashed=1;html=1;rounded=0;exitX=1;exitY=0.5;exitDx=0;exitDy=0;entryX=0;entryY=0.5;entryDx=0;entryDy=0;" edge="1" parent="1" source="0BwrC1VPoH0T5kkHzl9E-3" target="0BwrC1VPoH0T5kkHzl9E-16">
          <mxGeometry width="50" height="50" relative="1" as="geometry">
            <mxPoint x="460" y="180" as="sourcePoint" />
            <mxPoint x="510" y="130" as="targetPoint" />
          </mxGeometry>
        </mxCell>
        <mxCell id="0BwrC1VPoH0T5kkHzl9E-39" value="Text" style="edgeLabel;html=1;align=center;verticalAlign=middle;resizable=0;points=[];" vertex="1" connectable="0" parent="0BwrC1VPoH0T5kkHzl9E-38">
          <mxGeometry x="-0.0216" y="-4" relative="1" as="geometry">
            <mxPoint as="offset" />
          </mxGeometry>
        </mxCell>
        <mxCell id="0BwrC1VPoH0T5kkHzl9E-40" value="&lt;font style=&quot;font-size: 12px;&quot;&gt;&lt;b&gt;完成了逻辑上的传输&lt;/b&gt;&lt;/font&gt;" style="edgeLabel;html=1;align=center;verticalAlign=middle;resizable=0;points=[];" vertex="1" connectable="0" parent="0BwrC1VPoH0T5kkHzl9E-38">
          <mxGeometry x="-0.0282" y="-6" relative="1" as="geometry">
            <mxPoint as="offset" />
          </mxGeometry>
        </mxCell>
        <mxCell id="0BwrC1VPoH0T5kkHzl9E-41" value="" style="endArrow=classic;html=1;rounded=0;strokeColor=#FF9933;" edge="1" parent="1">
          <mxGeometry width="50" height="50" relative="1" as="geometry">
            <mxPoint x="280" y="180" as="sourcePoint" />
            <mxPoint x="280" y="380" as="targetPoint" />
          </mxGeometry>
        </mxCell>
        <mxCell id="0BwrC1VPoH0T5kkHzl9E-42" value="" style="endArrow=classic;html=1;rounded=0;strokeColor=#FF9933;" edge="1" parent="1">
          <mxGeometry width="50" height="50" relative="1" as="geometry">
            <mxPoint x="280" y="380" as="sourcePoint" />
            <mxPoint x="500" y="380" as="targetPoint" />
          </mxGeometry>
        </mxCell>
        <mxCell id="0BwrC1VPoH0T5kkHzl9E-43" value="" style="endArrow=classic;html=1;rounded=0;strokeColor=#FF9933;" edge="1" parent="1">
          <mxGeometry width="50" height="50" relative="1" as="geometry">
            <mxPoint x="500" y="380" as="sourcePoint" />
            <mxPoint x="500" y="280" as="targetPoint" />
          </mxGeometry>
        </mxCell>
        <mxCell id="0BwrC1VPoH0T5kkHzl9E-44" value="" style="endArrow=classic;html=1;rounded=0;strokeColor=#FF9933;" edge="1" parent="1">
          <mxGeometry width="50" height="50" relative="1" as="geometry">
            <mxPoint x="650" y="280" as="sourcePoint" />
            <mxPoint x="650" y="380" as="targetPoint" />
          </mxGeometry>
        </mxCell>
        <mxCell id="0BwrC1VPoH0T5kkHzl9E-45" value="" style="endArrow=classic;html=1;rounded=0;strokeColor=#FF9933;" edge="1" parent="1">
          <mxGeometry width="50" height="50" relative="1" as="geometry">
            <mxPoint x="650" y="380" as="sourcePoint" />
            <mxPoint x="860" y="380" as="targetPoint" />
          </mxGeometry>
        </mxCell>
        <mxCell id="0BwrC1VPoH0T5kkHzl9E-46" value="" style="endArrow=classic;html=1;rounded=0;strokeColor=#FF9933;" edge="1" parent="1">
          <mxGeometry width="50" height="50" relative="1" as="geometry">
            <mxPoint x="860" y="380" as="sourcePoint" />
            <mxPoint x="860" y="170" as="targetPoint" />
          </mxGeometry>
        </mxCell>
        <mxCell id="0BwrC1VPoH0T5kkHzl9E-47" value="&lt;b&gt;HTTP请求&lt;/b&gt;" style="rounded=1;whiteSpace=wrap;html=1;fillColor=#B3FF66;" vertex="1" parent="1">
          <mxGeometry x="540" y="470" width="80" height="40" as="geometry" />
        </mxCell>
        <mxCell id="0BwrC1VPoH0T5kkHzl9E-49" value="&lt;b&gt;HTTP请求&lt;/b&gt;" style="rounded=1;whiteSpace=wrap;html=1;fillColor=#B3FF66;" vertex="1" parent="1">
          <mxGeometry x="540" y="535.5" width="80" height="40" as="geometry" />
        </mxCell>
        <mxCell id="0BwrC1VPoH0T5kkHzl9E-73" value="" style="edgeStyle=orthogonalEdgeStyle;rounded=0;orthogonalLoop=1;jettySize=auto;html=1;" edge="1" parent="1" source="0BwrC1VPoH0T5kkHzl9E-50" target="0BwrC1VPoH0T5kkHzl9E-72">
          <mxGeometry relative="1" as="geometry" />
        </mxCell>
        <mxCell id="0BwrC1VPoH0T5kkHzl9E-50" value="&lt;b&gt;TCP头&lt;/b&gt;" style="rounded=1;whiteSpace=wrap;html=1;fillColor=#66FFFF;" vertex="1" parent="1">
          <mxGeometry x="460" y="535" width="80" height="40" as="geometry" />
        </mxCell>
        <mxCell id="0BwrC1VPoH0T5kkHzl9E-51" value="&lt;b&gt;HTTP请求&lt;/b&gt;" style="rounded=1;whiteSpace=wrap;html=1;fillColor=#B3FF66;" vertex="1" parent="1">
          <mxGeometry x="540" y="610" width="80" height="40" as="geometry" />
        </mxCell>
        <mxCell id="0BwrC1VPoH0T5kkHzl9E-52" value="&lt;b&gt;TCP头&lt;/b&gt;" style="rounded=1;whiteSpace=wrap;html=1;fillColor=#66FFFF;" vertex="1" parent="1">
          <mxGeometry x="460" y="609.5" width="80" height="40" as="geometry" />
        </mxCell>
        <mxCell id="0BwrC1VPoH0T5kkHzl9E-75" value="" style="edgeStyle=orthogonalEdgeStyle;rounded=0;orthogonalLoop=1;jettySize=auto;html=1;" edge="1" parent="1" source="0BwrC1VPoH0T5kkHzl9E-53" target="0BwrC1VPoH0T5kkHzl9E-74">
          <mxGeometry relative="1" as="geometry" />
        </mxCell>
        <mxCell id="0BwrC1VPoH0T5kkHzl9E-53" value="&lt;b&gt;IP头&lt;/b&gt;" style="rounded=1;whiteSpace=wrap;html=1;fillColor=#FF9933;" vertex="1" parent="1">
          <mxGeometry x="380" y="610" width="80" height="40" as="geometry" />
        </mxCell>
        <mxCell id="0BwrC1VPoH0T5kkHzl9E-54" value="&lt;b&gt;HTTP请求&lt;/b&gt;" style="rounded=1;whiteSpace=wrap;html=1;fillColor=#B3FF66;" vertex="1" parent="1">
          <mxGeometry x="501" y="689.5" width="80" height="40" as="geometry" />
        </mxCell>
        <mxCell id="0BwrC1VPoH0T5kkHzl9E-55" value="&lt;b&gt;TCP头&lt;/b&gt;" style="rounded=1;whiteSpace=wrap;html=1;fillColor=#66FFFF;" vertex="1" parent="1">
          <mxGeometry x="421" y="689" width="80" height="40" as="geometry" />
        </mxCell>
        <mxCell id="0BwrC1VPoH0T5kkHzl9E-56" value="&lt;b&gt;IP头&lt;/b&gt;" style="rounded=1;whiteSpace=wrap;html=1;fillColor=#FF9933;" vertex="1" parent="1">
          <mxGeometry x="341" y="689.5" width="80" height="40" as="geometry" />
        </mxCell>
        <mxCell id="0BwrC1VPoH0T5kkHzl9E-77" value="" style="edgeStyle=orthogonalEdgeStyle;rounded=0;orthogonalLoop=1;jettySize=auto;html=1;" edge="1" parent="1" source="0BwrC1VPoH0T5kkHzl9E-57" target="0BwrC1VPoH0T5kkHzl9E-76">
          <mxGeometry relative="1" as="geometry" />
        </mxCell>
        <mxCell id="0BwrC1VPoH0T5kkHzl9E-57" value="&lt;b&gt;帧头&lt;/b&gt;&lt;span style=&quot;color: rgba(0, 0, 0, 0); font-family: monospace; font-size: 0px; text-align: start; text-wrap: nowrap;&quot;&gt;%3CmxGraphModel%3E%3Croot%3E%3CmxCell%20id%3D%220%22%2F%3E%3CmxCell%20id%3D%221%22%20parent%3D%220%22%2F%3E%3CmxCell%20id%3D%222%22%20value%3D%22%26lt%3Bb%26gt%3BIP%E5%A4%B4%26lt%3B%2Fb%26gt%3B%22%20style%3D%22rounded%3D1%3BwhiteSpace%3Dwrap%3Bhtml%3D1%3B%22%20vertex%3D%221%22%20parent%3D%221%22%3E%3CmxGeometry%20x%3D%22380%22%20y%3D%22780.5%22%20width%3D%2280%22%20height%3D%2240%22%20as%3D%22geometry%22%2F%3E%3C%2FmxCell%3E%3C%2Froot%3E%3C%2FmxGraphModel%3E&lt;/span&gt;" style="rounded=1;whiteSpace=wrap;html=1;fillColor=#EA6B66;" vertex="1" parent="1">
          <mxGeometry x="301" y="689.5" width="40" height="40" as="geometry" />
        </mxCell>
        <mxCell id="0BwrC1VPoH0T5kkHzl9E-58" value="&lt;b&gt;帧尾&lt;/b&gt;" style="rounded=1;whiteSpace=wrap;html=1;fillColor=#FF66B3;" vertex="1" parent="1">
          <mxGeometry x="581" y="689.5" width="40" height="40" as="geometry" />
        </mxCell>
        <mxCell id="0BwrC1VPoH0T5kkHzl9E-59" value="&lt;b&gt;&lt;font style=&quot;font-size: 14px;&quot;&gt;应用层&lt;/font&gt;&lt;/b&gt;" style="text;html=1;align=center;verticalAlign=middle;resizable=0;points=[];autosize=1;strokeColor=none;fillColor=none;" vertex="1" parent="1">
          <mxGeometry x="675" y="475" width="70" height="30" as="geometry" />
        </mxCell>
        <mxCell id="0BwrC1VPoH0T5kkHzl9E-60" value="&lt;b&gt;&lt;font style=&quot;font-size: 14px;&quot;&gt;传输层&lt;/font&gt;&lt;/b&gt;" style="text;html=1;align=center;verticalAlign=middle;resizable=0;points=[];autosize=1;strokeColor=none;fillColor=none;" vertex="1" parent="1">
          <mxGeometry x="675" y="540.5" width="70" height="30" as="geometry" />
        </mxCell>
        <mxCell id="0BwrC1VPoH0T5kkHzl9E-61" value="&lt;b&gt;&lt;font style=&quot;font-size: 14px;&quot;&gt;网络层&lt;/font&gt;&lt;/b&gt;" style="text;html=1;align=center;verticalAlign=middle;resizable=0;points=[];autosize=1;strokeColor=none;fillColor=none;" vertex="1" parent="1">
          <mxGeometry x="675" y="615" width="70" height="30" as="geometry" />
        </mxCell>
        <mxCell id="0BwrC1VPoH0T5kkHzl9E-62" value="&lt;b&gt;&lt;font style=&quot;font-size: 14px;&quot;&gt;网络接口层&lt;/font&gt;&lt;/b&gt;" style="text;html=1;align=center;verticalAlign=middle;resizable=0;points=[];autosize=1;strokeColor=none;fillColor=none;" vertex="1" parent="1">
          <mxGeometry x="666" y="689.5" width="90" height="30" as="geometry" />
        </mxCell>
        <mxCell id="0BwrC1VPoH0T5kkHzl9E-72" value="核心参数为：源端口和目标端口号&lt;br&gt;【HTTP服务端口默认80，HTTPS默认443】&lt;br&gt;解决：找到哪个应用的问题" style="shape=process;whiteSpace=wrap;html=1;backgroundOutline=1;fillColor=#FFFFFF;rounded=1;align=left;" vertex="1" parent="1">
          <mxGeometry x="100" y="525" width="300" height="60" as="geometry" />
        </mxCell>
        <mxCell id="0BwrC1VPoH0T5kkHzl9E-74" value="核心参数为目标IP和源IP&lt;br&gt;解决找到哪个主机的问题" style="shape=process;whiteSpace=wrap;html=1;backgroundOutline=1;fillColor=#FFFFFF;rounded=1;" vertex="1" parent="1">
          <mxGeometry x="150" y="600" width="170" height="60" as="geometry" />
        </mxCell>
        <mxCell id="0BwrC1VPoH0T5kkHzl9E-76" value="核心参数为目标MAC和源MAC&lt;br&gt;解决：物理网路传输的问题" style="shape=process;whiteSpace=wrap;html=1;backgroundOutline=1;fillColor=#FFFFFF;rounded=1;" vertex="1" parent="1">
          <mxGeometry x="71" y="679.5" width="190" height="60" as="geometry" />
        </mxCell>
      </root>
    </mxGraphModel>
  </diagram>
</mxfile>
